<svg width="0" height="0" class="hidden">
  <symbol xmlns="http://www.w3.org/2000/svg" viewBox="0 0 48 48" id="filter">
    <path d="M22 40q-.85 0-1.425-.575Q20 38.85 20 38V26L8.05 10.75q-.7-.85-.2-1.8Q8.35 8 9.4 8h29.2q1.05 0 1.55.95t-.2 1.8L28 26v12q0 .85-.575 1.425Q26.85 40 26 40Zm2-13.8L36 11H12Zm0 0Z"></path>
  </symbol>
  <symbol xmlns="http://www.w3.org/2000/svg" viewBox="0 0 48 48" id="logo">
    <path d="M24 29.25 18.75 24 24 18.75 29.25 24Zm-4.25-14.7L15.6 10.4 24 2l8.4 8.4-4.15 4.15L24 10.3ZM10.4 32.4 2 24l8.4-8.4 4.15 4.15L10.3 24l4.25 4.25Zm27.2 0-4.15-4.15L37.7 24l-4.25-4.25 4.15-4.15L46 24ZM24 46l-8.4-8.4 4.15-4.15L24 37.7l4.25-4.25 4.15 4.15Z"></path>
  </symbol>
  <symbol xmlns="http://www.w3.org/2000/svg" viewBox="0 0 48 48" id="taskdone">
    <path d="M24 44q-4.25 0-7.9-1.525-3.65-1.525-6.35-4.225-2.7-2.7-4.225-6.35Q4 28.25 4 24q0-4.2 1.525-7.85Q7.05 12.5 9.75 9.8q2.7-2.7 6.35-4.25Q19.75 4 24 4q3.75 0 7 1.2t5.85 3.3l-2.15 2.15q-2.2-1.75-4.9-2.7Q27.1 7 24 7q-7.25 0-12.125 4.875T7 24q0 7.25 4.875 12.125T24 41q7.25 0 12.125-4.875T41 24q0-1.5-.225-2.925-.225-1.425-.675-2.775l2.3-2.3q.8 1.85 1.2 3.85.4 2 .4 4.15 0 4.25-1.55 7.9-1.55 3.65-4.25 6.35-2.7 2.7-6.35 4.225Q28.2 44 24 44Zm-2.95-10.9-8.25-8.3 2.25-2.25 6 6 20.7-20.7 2.3 2.25Z"></path>
  </symbol>
  <symbol version="1.1" xmlns="http://www.w3.org/2000/svg" xmlns:xlink="http://www.w3.org/1999/xlink" x="0px" y="0px" xml:space="preserve" viewBox="0 0 24 24" id="trash">
    <g id="bounding_area">
      <rect width="24" height="24"></rect>
    </g>
    <g id="design">
      <g>
        <path d="M13.74,18.02c-0.41,0-0.75-0.34-0.75-0.75v-4.5c0-0.41,0.34-0.75,0.75-0.75s0.75,0.34,0.75,0.75v4.5
			C14.49,17.68,14.16,18.02,13.74,18.02z"></path>
        <path d="M10.25,18c-0.41,0-0.75-0.34-0.75-0.75v-4.5c0-0.41,0.34-0.75,0.75-0.75S11,12.34,11,12.75v4.5
			C11,17.66,10.66,18,10.25,18z"></path>
        <path d="M20.25,4h-7.5V2.75C12.75,2.34,12.41,2,12,2s-0.75,0.34-0.75,0.75V4h-7.5C3.34,4,3,4.34,3,4.75
			C3,5.16,3.34,5.5,3.75,5.5h0.57l1.54,14.05C6.01,20.95,7.19,22,8.59,22h6.82c1.4,0,2.58-1.05,2.73-2.45L19.68,5.5h0.57
			C20.66,5.5,21,5.16,21,4.75C21,4.34,20.66,4,20.25,4z M16.65,19.39c-0.07,0.63-0.6,1.11-1.24,1.11H8.59
			c-0.64,0-1.17-0.48-1.24-1.11L6.27,9.5h11.46L16.65,19.39z M17.89,8H6.11L5.84,5.5h12.32L17.89,8z"></path>
      </g>
    </g>
  </symbol>
  <symbol xmlns="http://www.w3.org/2000/svg" viewBox="0 0 48 48" id="add">
    <path d="M22.65 34h3v-8.3H34v-3h-8.35V14h-3v8.7H14v3h8.65ZM24 44q-4.1 0-7.75-1.575-3.65-1.575-6.375-4.3-2.725-2.725-4.3-6.375Q4 28.1 4 23.95q0-4.1 1.575-7.75 1.575-3.65 4.3-6.35 2.725-2.7 6.375-4.275Q19.9 4 24.05 4q4.1 0 7.75 1.575 3.65 1.575 6.35 4.275 2.7 2.7 4.275 6.35Q44 19.85 44 24q0 4.1-1.575 7.75-1.575 3.65-4.275 6.375t-6.35 4.3Q28.15 44 24 44Zm.05-3q7.05 0 12-4.975T41 23.95q0-7.05-4.95-12T24 7q-7.05 0-12.025 4.95Q7 16.9 7 24q0 7.05 4.975 12.025Q16.95 41 24.05 41ZM24 24Z"></path>
  </symbol>
  <symbol xmlns="http://www.w3.org/2000/svg" viewBox="0 0 48 48" id="circle">
    <path d="M24 44q-4.1 0-7.75-1.575-3.65-1.575-6.375-4.3-2.725-2.725-4.3-6.375Q4 28.1 4 24q0-4.15 1.575-7.8 1.575-3.65 4.3-6.35 2.725-2.7 6.375-4.275Q19.9 4 24 4q4.15 0 7.8 1.575 3.65 1.575 6.35 4.275 2.7 2.7 4.275 6.35Q44 19.85 44 24q0 4.1-1.575 7.75-1.575 3.65-4.275 6.375t-6.35 4.3Q28.15 44 24 44Zm0-3q7.1 0 12.05-4.975Q41 31.05 41 24q0-7.1-4.95-12.05Q31.1 7 24 7q-7.05 0-12.025 4.95Q7 16.9 7 24q0 7.05 4.975 12.025Q16.95 41 24 41Zm0-17Z"></path>
  </symbol>
  <symbol xmlns="http://www.w3.org/2000/svg" viewBox="0 0 48 48" id="delete">
    <path d="M18.05 33.05 24 27l6 6.05 2.35-2.4-5.95-6.05 5.95-6.05-2.35-2.4-6 6.05-5.95-6.05-2.4 2.4 6 6.05-6 6.05Zm-5 8.95q-1.2 0-2.1-.9-.9-.9-.9-2.1V10.5H8v-3h9.4V6h13.2v1.5H40v3h-2.05V39q0 1.2-.9 2.1-.9.9-2.1.9Zm21.9-31.5h-21.9V39h21.9Zm-21.9 0V39Z"></path>
  </symbol>
  <symbol xmlns="http://www.w3.org/2000/svg" viewBox="0 0 48 48" id="edit">
    <path d="M9 47.4q-1.2 0-2.1-.9-.9-.9-.9-2.1v-30q0-1.2.9-2.1.9-.9 2.1-.9h20.25l-3 3H9v30h30V27l3-3v20.4q0 1.2-.9 2.1-.9.9-2.1.9Zm15-18Zm9.1-17.6 2.15 2.1L21 28.1v4.3h4.25l14.3-14.3 2.1 2.1L26.5 35.4H18v-8.5Zm8.55 8.4-8.55-8.4 5-5q.85-.85 2.125-.85t2.125.9l4.2 4.25q.85.9.85 2.125t-.9 2.075Z"></path>
  </symbol>
</svg>